<?xml version="1.0" encoding="UTF-8" standalone="no"?>
<!DOCTYPE svg PUBLIC "-//W3C//DTD SVG 1.0//EN" "http://www.w3.org/TR/2001/PR-SVG-20010719/DTD/svg10.dtd">
<svg width="47cm" height="17cm" viewBox="15 76 922 326" xmlns="http://www.w3.org/2000/svg" xmlns:xlink="http://www.w3.org/1999/xlink">
  <g>
    <ellipse style="fill: #ffffff" cx="178" cy="220" rx="20" ry="20"/>
    <ellipse style="fill: none; fill-opacity:0; stroke-width: 2; stroke: #000000" cx="178" cy="220" rx="20" ry="20"/>
    <ellipse style="fill: none; fill-opacity:0; stroke-width: 0.2; stroke: #000000" cx="178" cy="220" rx="20" ry="20"/>
  </g>
  <g>
    <path style="fill: #ffffff" d="M 271.75 199.273 C 291.25,199.273 388.75,199.273 408.25,199.273 C 427.75,199.273 427.75,199.273 427.75,206.182 C 427.75,213.091 427.75,226.909 427.75,233.818 C 427.75,240.727 427.75,240.727 408.25,240.727 C 388.75,240.727 291.25,240.727 271.75,240.727 C 252.25,240.727 252.25,240.727 252.25,233.818 C 252.25,226.909 252.25,213.091 252.25,206.182 C 252.25,199.273 252.25,199.273 271.75,199.273z"/>
    <path style="fill: none; fill-opacity:0; stroke-width: 2; stroke: #000000" d="M 271.75 199.273 C 291.25,199.273 388.75,199.273 408.25,199.273 C 427.75,199.273 427.75,199.273 427.75,206.182 C 427.75,213.091 427.75,226.909 427.75,233.818 C 427.75,240.727 427.75,240.727 408.25,240.727 C 388.75,240.727 291.25,240.727 271.75,240.727 C 252.25,240.727 252.25,240.727 252.25,233.818 C 252.25,226.909 252.25,213.091 252.25,206.182 C 252.25,199.273 252.25,199.273 271.75,199.273"/>
    <path style="fill: none; fill-opacity:0; stroke-width: 0.2; stroke: #000000" d="M 271.75 199.273 C 291.25,199.273 388.75,199.273 408.25,199.273 C 427.75,199.273 427.75,199.273 427.75,206.182 C 427.75,213.091 427.75,226.909 427.75,233.818 C 427.75,240.727 427.75,240.727 408.25,240.727 C 388.75,240.727 291.25,240.727 271.75,240.727 C 252.25,240.727 252.25,240.727 252.25,233.818 C 252.25,226.909 252.25,213.091 252.25,206.182 C 252.25,199.273 252.25,199.273 271.75,199.273"/>
    <line style="fill: none; fill-opacity:0; stroke-width: 0.2; stroke: #000000" x1="271.75" y1="240.727" x2="408.25" y2="240.727"/>
    <line style="fill: none; fill-opacity:0; stroke-width: 0.2; stroke: #000000" x1="427.75" y1="206.182" x2="427.75" y2="233.818"/>
    <line style="fill: none; fill-opacity:0; stroke-width: 0.2; stroke: #000000" x1="252.25" y1="206.182" x2="252.25" y2="233.818"/>
    <line style="fill: none; fill-opacity:0; stroke-width: 0.2; stroke: #000000" x1="271.75" y1="199.273" x2="408.25" y2="199.273"/>
    <text font-size="12.8" style="fill: #000000;text-anchor:middle;font-family:sans-serif;font-style:normal;font-weight:normal" x="340" y="216">
      <tspan x="340" y="216">modification d’une tâche</tspan>
      <tspan x="340" y="232">(besoin ou service)</tspan>
    </text>
  </g>
  <g>
    <polygon style="fill: #ffffff" points="540,200 560,220 540,240 520,220 "/>
    <polygon style="fill: none; fill-opacity:0; stroke-width: 2; stroke: #000000" points="540,200 560,220 540,240 520,220 "/>
    <polygon style="fill: none; fill-opacity:0; stroke-width: 0.2; stroke: #000000" points="540,200 560,220 540,240 520,220 "/>
  </g>
  <text font-size="12.8" style="fill: #000000;text-anchor:start;font-family:sans-serif;font-style:normal;font-weight:normal" x="580" y="220">
    <tspan x="580" y="220"></tspan>
  </text>
  <text font-size="12.8" style="fill: #000000;text-anchor:start;font-family:sans-serif;font-style:normal;font-weight:normal" x="575" y="215">
    <tspan x="575" y="215">tous les champs</tspan>
    <tspan x="575" y="231">requis sont remplis ?</tspan>
  </text>
  <g>
    <rect style="fill: none; fill-opacity:0; stroke-width: 2; stroke: #000000" x="445.714" y="105.714" width="28.5714" height="28.5714"/>
    <ellipse style="fill: #ffffff" cx="460" cy="120" rx="20" ry="20"/>
    <ellipse style="fill: none; fill-opacity:0; stroke-width: 2; stroke: #000000" cx="460" cy="120" rx="20" ry="20"/>
    <ellipse style="fill: none; fill-opacity:0; stroke-width: 0.2; stroke: #000000" cx="460" cy="120" rx="20" ry="20"/>
    <ellipse style="fill: #ffffff" cx="460" cy="120" rx="17.1429" ry="17.1429"/>
    <ellipse style="fill: none; fill-opacity:0; stroke-width: 2; stroke: #000000" cx="460" cy="120" rx="17.1429" ry="17.1429"/>
    <ellipse style="fill: none; fill-opacity:0; stroke-width: 0.2; stroke: #000000" cx="460" cy="120" rx="17.1429" ry="17.1429"/>
    <polygon style="fill: #000000" points="448.571,131.429 454.286,117.143 468.571,128.571 471.429,108.571 465.714,122.857 451.429,111.429 "/>
    <polygon style="fill: none; fill-opacity:0; stroke-width: 2; stroke: #000000" points="448.571,131.429 454.286,117.143 468.571,128.571 471.429,108.571 465.714,122.857 451.429,111.429 "/>
    <polygon style="fill: none; fill-opacity:0; stroke-width: 0.2; stroke: #000000" points="448.571,131.429 454.286,117.143 468.571,128.571 471.429,108.571 465.714,122.857 451.429,111.429 "/>
  </g>
  <g>
    <polygon style="fill: #ffffff" points="540,320 560,340 540,360 520,340 "/>
    <polygon style="fill: none; fill-opacity:0; stroke-width: 2; stroke: #000000" points="540,320 560,340 540,360 520,340 "/>
    <polygon style="fill: none; fill-opacity:0; stroke-width: 0.2; stroke: #000000" points="540,320 560,340 540,360 520,340 "/>
  </g>
  <text font-size="12.8" style="fill: #000000;text-anchor:start;font-family:sans-serif;font-style:normal;font-weight:normal" x="465" y="382">
    <tspan x="465" y="382">les valeurs des champs</tspan>
    <tspan x="465" y="398">remplis sont correctes ?</tspan>
  </text>
  <g>
    <rect style="fill: none; fill-opacity:0; stroke-width: 2; stroke: #000000" x="325.714" y="325.714" width="28.5714" height="28.5714"/>
    <ellipse style="fill: #ffffff" cx="340" cy="340" rx="20" ry="20"/>
    <ellipse style="fill: none; fill-opacity:0; stroke-width: 2; stroke: #000000" cx="340" cy="340" rx="20" ry="20"/>
    <ellipse style="fill: none; fill-opacity:0; stroke-width: 0.2; stroke: #000000" cx="340" cy="340" rx="20" ry="20"/>
    <ellipse style="fill: #ffffff" cx="340" cy="340" rx="17.1429" ry="17.1429"/>
    <ellipse style="fill: none; fill-opacity:0; stroke-width: 2; stroke: #000000" cx="340" cy="340" rx="17.1429" ry="17.1429"/>
    <ellipse style="fill: none; fill-opacity:0; stroke-width: 0.2; stroke: #000000" cx="340" cy="340" rx="17.1429" ry="17.1429"/>
    <polygon style="fill: #000000" points="328.571,351.429 334.286,337.143 348.571,348.571 351.429,328.571 345.714,342.857 331.429,331.429 "/>
    <polygon style="fill: none; fill-opacity:0; stroke-width: 2; stroke: #000000" points="328.571,351.429 334.286,337.143 348.571,348.571 351.429,328.571 345.714,342.857 331.429,331.429 "/>
    <polygon style="fill: none; fill-opacity:0; stroke-width: 0.2; stroke: #000000" points="328.571,351.429 334.286,337.143 348.571,348.571 351.429,328.571 345.714,342.857 331.429,331.429 "/>
  </g>
  <text font-size="12.8" style="fill: #000000;text-anchor:start;font-family:sans-serif;font-style:normal;font-weight:normal" x="15" y="208">
    <tspan x="15" y="208">utilisateur connecté</tspan>
    <tspan x="15" y="224">créateur de la tâche</tspan>
    <tspan x="15" y="240">ou adminstrateur</tspan>
  </text>
  <text font-size="12.8" style="fill: #000000;text-anchor:start;font-family:sans-serif;font-style:normal;font-weight:normal" x="549" y="194">
    <tspan x="549" y="194">non</tspan>
  </text>
  <text font-size="12.8" style="fill: #000000;text-anchor:start;font-family:sans-serif;font-style:normal;font-weight:normal" x="548" y="251">
    <tspan x="548" y="251">oui</tspan>
  </text>
  <text font-size="12.8" style="fill: #000000;text-anchor:start;font-family:sans-serif;font-style:normal;font-weight:normal" x="492" y="357">
    <tspan x="492" y="357">non</tspan>
  </text>
  <text font-size="12.8" style="fill: #000000;text-anchor:start;font-family:sans-serif;font-style:normal;font-weight:normal" x="567.002" y="355.178">
    <tspan x="567.002" y="355.178">oui</tspan>
  </text>
  <g>
    <line style="fill: none; fill-opacity:0; stroke-width: 2; stroke: #000000" x1="198" y1="220" x2="242.514" y2="220"/>
    <polygon style="fill: #000000" points="250.014,220 240.014,225 242.514,220 240.014,215 "/>
    <polygon style="fill: none; fill-opacity:0; stroke-width: 2; stroke: #000000" points="250.014,220 240.014,225 242.514,220 240.014,215 "/>
  </g>
  <g>
    <ellipse style="fill: #ffffff" cx="340" cy="97" rx="20" ry="20"/>
    <ellipse style="fill: none; fill-opacity:0; stroke-width: 2; stroke: #000000" cx="340" cy="97" rx="20" ry="20"/>
    <ellipse style="fill: none; fill-opacity:0; stroke-width: 0.2; stroke: #000000" cx="340" cy="97" rx="20" ry="20"/>
    <ellipse style="fill: #ffffff" cx="340" cy="97" rx="17.1429" ry="17.1429"/>
    <ellipse style="fill: none; fill-opacity:0; stroke-width: 2; stroke: #000000" cx="340" cy="97" rx="17.1429" ry="17.1429"/>
    <ellipse style="fill: none; fill-opacity:0; stroke-width: 0.2; stroke: #000000" cx="340" cy="97" rx="17.1429" ry="17.1429"/>
    <polygon style="fill: #000000" points="328.571,88.4286 337.143,97 328.571,105.571 331.429,108.429 340,99.8571 348.571,108.429 351.429,105.571 342.857,97 351.429,88.4286 348.571,85.5714 340,94.1429 331.429,85.5714 "/>
    <polygon style="fill: none; fill-opacity:0; stroke-width: 2; stroke: #000000" points="328.571,88.4286 337.143,97 328.571,105.571 331.429,108.429 340,99.8571 348.571,108.429 351.429,105.571 342.857,97 351.429,88.4286 348.571,85.5714 340,94.1429 331.429,85.5714 "/>
    <polygon style="fill: none; fill-opacity:0; stroke-width: 0.2; stroke: #000000" points="328.571,88.4286 337.143,97 328.571,105.571 331.429,108.429 340,99.8571 348.571,108.429 351.429,105.571 342.857,97 351.429,88.4286 348.571,85.5714 340,94.1429 331.429,85.5714 "/>
  </g>
  <text font-size="12.8" style="fill: #000000;text-anchor:start;font-family:sans-serif;font-style:normal;font-weight:normal" x="267" y="177">
    <tspan x="267" y="177">annulation</tspan>
  </text>
  <g>
    <line style="fill: none; fill-opacity:0; stroke-width: 2; stroke: #000000" x1="340" y1="199.273" x2="340" y2="126.736"/>
    <polygon style="fill: #000000" points="340,119.236 345,129.236 340,126.736 335,129.236 "/>
    <polygon style="fill: none; fill-opacity:0; stroke-width: 2; stroke: #000000" points="340,119.236 345,129.236 340,126.736 335,129.236 "/>
  </g>
  <g>
    <line style="fill: none; fill-opacity:0; stroke-width: 2; stroke: #000000" x1="427.75" y1="220" x2="510.264" y2="220"/>
    <polygon style="fill: #000000" points="517.764,220 507.764,225 510.264,220 507.764,215 "/>
    <polygon style="fill: none; fill-opacity:0; stroke-width: 2; stroke: #000000" points="517.764,220 507.764,225 510.264,220 507.764,215 "/>
  </g>
  <g>
    <line style="fill: none; fill-opacity:0; stroke-width: 2; stroke: #000000" x1="540" y1="240" x2="540" y2="310.264"/>
    <polygon style="fill: #000000" points="540,317.764 535,307.764 540,310.264 545,307.764 "/>
    <polygon style="fill: none; fill-opacity:0; stroke-width: 2; stroke: #000000" points="540,317.764 535,307.764 540,310.264 545,307.764 "/>
  </g>
  <g>
    <line style="fill: none; fill-opacity:0; stroke-width: 2; stroke: #000000" x1="520" y1="340" x2="369.736" y2="340"/>
    <polygon style="fill: #000000" points="362.236,340 372.236,335 369.736,340 372.236,345 "/>
    <polygon style="fill: none; fill-opacity:0; stroke-width: 2; stroke: #000000" points="362.236,340 372.236,335 369.736,340 372.236,345 "/>
  </g>
  <g>
    <line style="fill: none; fill-opacity:0; stroke-width: 2; stroke: #000000" x1="340" y1="320" x2="340" y2="250.463"/>
    <polygon style="fill: #000000" points="340,242.963 345,252.963 340,250.463 335,252.963 "/>
    <polygon style="fill: none; fill-opacity:0; stroke-width: 2; stroke: #000000" points="340,242.963 345,252.963 340,250.463 335,252.963 "/>
  </g>
  <g>
    <path style="fill: none; fill-opacity:0; stroke-width: 2; stroke: #000000" d="M 540 200 C 540,120 540,120 489.736,120"/>
    <polygon style="fill: #000000" points="482.236,120 492.236,115 489.736,120 492.236,125 "/>
    <polygon style="fill: none; fill-opacity:0; stroke-width: 2; stroke: #000000" points="482.236,120 492.236,115 489.736,120 492.236,125 "/>
  </g>
  <g>
    <path style="fill: none; fill-opacity:0; stroke-width: 2; stroke: #000000" d="M 440 120 C 406,118 408.276,118.452 408.253,189.537"/>
    <polygon style="fill: #000000" points="408.251,197.037 403.254,187.035 408.253,189.537 413.254,187.038 "/>
    <polygon style="fill: none; fill-opacity:0; stroke-width: 2; stroke: #000000" points="408.251,197.037 403.254,187.035 408.253,189.537 413.254,187.038 "/>
  </g>
  <g>
    <ellipse style="fill: #ffffff" cx="680" cy="340" rx="20" ry="20"/>
    <ellipse style="fill: none; fill-opacity:0; stroke-width: 2; stroke: #000000" cx="680" cy="340" rx="20" ry="20"/>
    <ellipse style="fill: none; fill-opacity:0; stroke-width: 0.2; stroke: #000000" cx="680" cy="340" rx="20" ry="20"/>
    <ellipse style="fill: #ffffff" cx="680" cy="340" rx="17.1429" ry="17.1429"/>
    <ellipse style="fill: none; fill-opacity:0; stroke-width: 2; stroke: #000000" cx="680" cy="340" rx="17.1429" ry="17.1429"/>
    <ellipse style="fill: none; fill-opacity:0; stroke-width: 0.2; stroke: #000000" cx="680" cy="340" rx="17.1429" ry="17.1429"/>
  </g>
  <text font-size="12.8" style="fill: #000000;text-anchor:start;font-family:sans-serif;font-style:normal;font-weight:normal" x="622" y="292">
    <tspan x="622" y="292">mise-à-jour de la tâche</tspan>
    <tspan x="622" y="308">en base de données</tspan>
  </text>
  <g>
    <ellipse style="fill: #000000" cx="796" cy="340" rx="20" ry="20"/>
    <ellipse style="fill: none; fill-opacity:0; stroke-width: 2; stroke: #000000" cx="796" cy="340" rx="20" ry="20"/>
    <ellipse style="fill: none; fill-opacity:0; stroke-width: 0.2; stroke: #000000" cx="796" cy="340" rx="20" ry="20"/>
    <ellipse style="fill: #ffffff" cx="796" cy="340" rx="17.1429" ry="17.1429"/>
    <ellipse style="fill: none; fill-opacity:0; stroke-width: 2; stroke: #000000" cx="796" cy="340" rx="17.1429" ry="17.1429"/>
    <ellipse style="fill: none; fill-opacity:0; stroke-width: 0.2; stroke: #000000" cx="796" cy="340" rx="17.1429" ry="17.1429"/>
    <ellipse style="fill: #000000" cx="796" cy="340" rx="11.4286" ry="11.4286"/>
    <ellipse style="fill: none; fill-opacity:0; stroke-width: 2; stroke: #000000" cx="796" cy="340" rx="11.4286" ry="11.4286"/>
    <ellipse style="fill: none; fill-opacity:0; stroke-width: 0.2; stroke: #000000" cx="796" cy="340" rx="11.4286" ry="11.4286"/>
  </g>
  <g>
    <line style="fill: none; fill-opacity:0; stroke-width: 2; stroke: #000000" x1="560" y1="340" x2="650.264" y2="340"/>
    <polygon style="fill: #000000" points="657.764,340 647.764,345 650.264,340 647.764,335 "/>
    <polygon style="fill: none; fill-opacity:0; stroke-width: 2; stroke: #000000" points="657.764,340 647.764,345 650.264,340 647.764,335 "/>
  </g>
  <g>
    <line style="fill: none; fill-opacity:0; stroke-width: 2; stroke: #000000" x1="700" y1="340" x2="766.264" y2="340"/>
    <polygon style="fill: #000000" points="773.764,340 763.764,345 766.264,340 763.764,335 "/>
    <polygon style="fill: none; fill-opacity:0; stroke-width: 2; stroke: #000000" points="773.764,340 763.764,345 766.264,340 763.764,335 "/>
  </g>
  <text font-size="12.8" style="fill: #000000;text-anchor:start;font-family:sans-serif;font-style:normal;font-weight:normal" x="828" y="335">
    <tspan x="828" y="335">redirection sur la</tspan>
    <tspan x="828" y="351">page de la tâche</tspan>
  </text>
</svg>
