<?xml version="1.0" encoding="UTF-8" standalone="no"?>
<!DOCTYPE svg PUBLIC "-//W3C//DTD SVG 1.0//EN" "http://www.w3.org/TR/2001/PR-SVG-20010719/DTD/svg10.dtd">
<svg width="39cm" height="9cm" viewBox="-7 76 771 175" xmlns="http://www.w3.org/2000/svg" xmlns:xlink="http://www.w3.org/1999/xlink">
  <g>
    <ellipse style="fill: #ffffff" cx="178" cy="220" rx="20" ry="20"/>
    <ellipse style="fill: none; fill-opacity:0; stroke-width: 2; stroke: #000000" cx="178" cy="220" rx="20" ry="20"/>
    <ellipse style="fill: none; fill-opacity:0; stroke-width: 0.2; stroke: #000000" cx="178" cy="220" rx="20" ry="20"/>
  </g>
  <g>
    <path style="fill: #ffffff" d="M 269.012 190.546 C 289.295,190.546 390.706,190.546 410.989,190.546 C 431.271,190.546 431.271,190.546 431.271,200.364 C 431.271,210.182 431.271,229.818 431.271,239.636 C 431.271,249.455 431.271,249.455 410.989,249.455 C 390.706,249.455 289.295,249.455 269.012,249.455 C 248.73,249.455 248.73,249.455 248.73,239.636 C 248.73,229.818 248.73,210.182 248.73,200.364 C 248.73,190.546 248.73,190.546 269.012,190.546z"/>
    <path style="fill: none; fill-opacity:0; stroke-width: 2; stroke: #000000" d="M 269.012 190.546 C 289.295,190.546 390.706,190.546 410.989,190.546 C 431.271,190.546 431.271,190.546 431.271,200.364 C 431.271,210.182 431.271,229.818 431.271,239.636 C 431.271,249.455 431.271,249.455 410.989,249.455 C 390.706,249.455 289.295,249.455 269.012,249.455 C 248.73,249.455 248.73,249.455 248.73,239.636 C 248.73,229.818 248.73,210.182 248.73,200.364 C 248.73,190.546 248.73,190.546 269.012,190.546"/>
    <path style="fill: none; fill-opacity:0; stroke-width: 0.2; stroke: #000000" d="M 269.012 190.546 C 289.295,190.546 390.706,190.546 410.989,190.546 C 431.271,190.546 431.271,190.546 431.271,200.364 C 431.271,210.182 431.271,229.818 431.271,239.636 C 431.271,249.455 431.271,249.455 410.989,249.455 C 390.706,249.455 289.295,249.455 269.012,249.455 C 248.73,249.455 248.73,249.455 248.73,239.636 C 248.73,229.818 248.73,210.182 248.73,200.364 C 248.73,190.546 248.73,190.546 269.012,190.546"/>
    <line style="fill: none; fill-opacity:0; stroke-width: 0.2; stroke: #000000" x1="269.012" y1="249.455" x2="410.989" y2="249.455"/>
    <line style="fill: none; fill-opacity:0; stroke-width: 0.2; stroke: #000000" x1="431.271" y1="200.364" x2="431.271" y2="239.636"/>
    <line style="fill: none; fill-opacity:0; stroke-width: 0.2; stroke: #000000" x1="248.73" y1="200.364" x2="248.73" y2="239.636"/>
    <line style="fill: none; fill-opacity:0; stroke-width: 0.2; stroke: #000000" x1="269.012" y1="190.546" x2="410.989" y2="190.546"/>
    <text font-size="12.8" style="fill: #000000;text-anchor:middle;font-family:sans-serif;font-style:normal;font-weight:normal" x="340.001" y="216">
      <tspan x="340.001" y="216">désactivation d’un</tspan>
      <tspan x="340.001" y="232">compte utilisateur</tspan>
    </text>
  </g>
  <text font-size="12.8" style="fill: #000000;text-anchor:start;font-family:sans-serif;font-style:normal;font-weight:normal" x="-6" y="207">
    <tspan x="-6" y="207">utilisateur connecté</tspan>
    <tspan x="-6" y="223">propriétaire du compte</tspan>
    <tspan x="-6" y="239">ou adminstrateur</tspan>
  </text>
  <g>
    <line style="fill: none; fill-opacity:0; stroke-width: 2; stroke: #000000" x1="198" y1="220" x2="238.994" y2="220"/>
    <polygon style="fill: #000000" points="246.494,220 236.494,225 238.994,220 236.494,215 "/>
    <polygon style="fill: none; fill-opacity:0; stroke-width: 2; stroke: #000000" points="246.494,220 236.494,225 238.994,220 236.494,215 "/>
  </g>
  <g>
    <ellipse style="fill: #ffffff" cx="340" cy="97" rx="20" ry="20"/>
    <ellipse style="fill: none; fill-opacity:0; stroke-width: 2; stroke: #000000" cx="340" cy="97" rx="20" ry="20"/>
    <ellipse style="fill: none; fill-opacity:0; stroke-width: 0.2; stroke: #000000" cx="340" cy="97" rx="20" ry="20"/>
    <ellipse style="fill: #ffffff" cx="340" cy="97" rx="17.1429" ry="17.1429"/>
    <ellipse style="fill: none; fill-opacity:0; stroke-width: 2; stroke: #000000" cx="340" cy="97" rx="17.1429" ry="17.1429"/>
    <ellipse style="fill: none; fill-opacity:0; stroke-width: 0.2; stroke: #000000" cx="340" cy="97" rx="17.1429" ry="17.1429"/>
    <polygon style="fill: #000000" points="328.571,88.4286 337.143,97 328.571,105.571 331.429,108.429 340,99.8571 348.571,108.429 351.429,105.571 342.857,97 351.429,88.4286 348.571,85.5714 340,94.1429 331.429,85.5714 "/>
    <polygon style="fill: none; fill-opacity:0; stroke-width: 2; stroke: #000000" points="328.571,88.4286 337.143,97 328.571,105.571 331.429,108.429 340,99.8571 348.571,108.429 351.429,105.571 342.857,97 351.429,88.4286 348.571,85.5714 340,94.1429 331.429,85.5714 "/>
    <polygon style="fill: none; fill-opacity:0; stroke-width: 0.2; stroke: #000000" points="328.571,88.4286 337.143,97 328.571,105.571 331.429,108.429 340,99.8571 348.571,108.429 351.429,105.571 342.857,97 351.429,88.4286 348.571,85.5714 340,94.1429 331.429,85.5714 "/>
  </g>
  <text font-size="12.8" style="fill: #000000;text-anchor:start;font-family:sans-serif;font-style:normal;font-weight:normal" x="267" y="177">
    <tspan x="267" y="177">annulation</tspan>
  </text>
  <g>
    <line style="fill: none; fill-opacity:0; stroke-width: 2; stroke: #000000" x1="340.001" y1="190.546" x2="340" y2="126.736"/>
    <polygon style="fill: #000000" points="340,119.236 345,129.236 340,126.736 335,129.236 "/>
    <polygon style="fill: none; fill-opacity:0; stroke-width: 2; stroke: #000000" points="340,119.236 345,129.236 340,126.736 335,129.236 "/>
  </g>
  <text font-size="12.8" style="fill: #000000;text-anchor:start;font-family:sans-serif;font-style:normal;font-weight:normal" x="454" y="205.25">
    <tspan x="454" y="205.25">validation</tspan>
  </text>
  <g>
    <ellipse style="fill: #000000" cx="560" cy="220" rx="20" ry="20"/>
    <ellipse style="fill: none; fill-opacity:0; stroke-width: 2; stroke: #000000" cx="560" cy="220" rx="20" ry="20"/>
    <ellipse style="fill: none; fill-opacity:0; stroke-width: 0.2; stroke: #000000" cx="560" cy="220" rx="20" ry="20"/>
    <ellipse style="fill: #ffffff" cx="560" cy="220" rx="17.1429" ry="17.1429"/>
    <ellipse style="fill: none; fill-opacity:0; stroke-width: 2; stroke: #000000" cx="560" cy="220" rx="17.1429" ry="17.1429"/>
    <ellipse style="fill: none; fill-opacity:0; stroke-width: 0.2; stroke: #000000" cx="560" cy="220" rx="17.1429" ry="17.1429"/>
    <ellipse style="fill: #000000" cx="560" cy="220" rx="11.4286" ry="11.4286"/>
    <ellipse style="fill: none; fill-opacity:0; stroke-width: 2; stroke: #000000" cx="560" cy="220" rx="11.4286" ry="11.4286"/>
    <ellipse style="fill: none; fill-opacity:0; stroke-width: 0.2; stroke: #000000" cx="560" cy="220" rx="11.4286" ry="11.4286"/>
  </g>
  <g>
    <line style="fill: none; fill-opacity:0; stroke-width: 2; stroke: #000000" x1="431.271" y1="220" x2="530.264" y2="220"/>
    <polygon style="fill: #000000" points="537.764,220 527.764,225 530.264,220 527.764,215 "/>
    <polygon style="fill: none; fill-opacity:0; stroke-width: 2; stroke: #000000" points="537.764,220 527.764,225 530.264,220 527.764,215 "/>
  </g>
  <text font-size="12.8" style="fill: #000000;text-anchor:start;font-family:sans-serif;font-style:normal;font-weight:normal" x="596" y="214">
    <tspan x="596" y="214">mise-à-jour de l’utilisateur</tspan>
    <tspan x="596" y="230">en base de données</tspan>
  </text>
</svg>
