<?xml version="1.0" encoding="UTF-8" standalone="no"?>
<!DOCTYPE svg PUBLIC "-//W3C//DTD SVG 1.0//EN" "http://www.w3.org/TR/2001/PR-SVG-20010719/DTD/svg10.dtd">
<svg width="33cm" height="26cm" viewBox="-14 -225 647 501" xmlns="http://www.w3.org/2000/svg" xmlns:xlink="http://www.w3.org/1999/xlink">
  <g>
    <ellipse style="fill: #ffffff" cx="82" cy="100" rx="20" ry="20"/>
    <ellipse style="fill: none; fill-opacity:0; stroke-width: 2; stroke: #000000" cx="82" cy="100" rx="20" ry="20"/>
    <ellipse style="fill: none; fill-opacity:0; stroke-width: 0.2; stroke: #000000" cx="82" cy="100" rx="20" ry="20"/>
  </g>
  <g>
    <path style="fill: #ffffff" d="M 172.394 79.2727 C 180.853,79.2727 223.147,79.2727 231.606,79.2727 C 240.065,79.2727 240.065,79.2727 240.065,86.1818 C 240.065,93.0909 240.065,106.909 240.065,113.818 C 240.065,120.727 240.065,120.727 231.606,120.727 C 223.147,120.727 180.853,120.727 172.394,120.727 C 163.935,120.727 163.935,120.727 163.935,113.818 C 163.935,106.909 163.935,93.0909 163.935,86.1818 C 163.935,79.2727 163.935,79.2727 172.394,79.2727z"/>
    <path style="fill: none; fill-opacity:0; stroke-width: 2; stroke: #000000" d="M 172.394 79.2727 C 180.853,79.2727 223.147,79.2727 231.606,79.2727 C 240.065,79.2727 240.065,79.2727 240.065,86.1818 C 240.065,93.0909 240.065,106.909 240.065,113.818 C 240.065,120.727 240.065,120.727 231.606,120.727 C 223.147,120.727 180.853,120.727 172.394,120.727 C 163.935,120.727 163.935,120.727 163.935,113.818 C 163.935,106.909 163.935,93.0909 163.935,86.1818 C 163.935,79.2727 163.935,79.2727 172.394,79.2727"/>
    <path style="fill: none; fill-opacity:0; stroke-width: 0.2; stroke: #000000" d="M 172.394 79.2727 C 180.853,79.2727 223.147,79.2727 231.606,79.2727 C 240.065,79.2727 240.065,79.2727 240.065,86.1818 C 240.065,93.0909 240.065,106.909 240.065,113.818 C 240.065,120.727 240.065,120.727 231.606,120.727 C 223.147,120.727 180.853,120.727 172.394,120.727 C 163.935,120.727 163.935,120.727 163.935,113.818 C 163.935,106.909 163.935,93.0909 163.935,86.1818 C 163.935,79.2727 163.935,79.2727 172.394,79.2727"/>
    <line style="fill: none; fill-opacity:0; stroke-width: 0.2; stroke: #000000" x1="172.394" y1="120.727" x2="231.606" y2="120.727"/>
    <line style="fill: none; fill-opacity:0; stroke-width: 0.2; stroke: #000000" x1="240.065" y1="86.1818" x2="240.065" y2="113.818"/>
    <line style="fill: none; fill-opacity:0; stroke-width: 0.2; stroke: #000000" x1="163.935" y1="86.1818" x2="163.935" y2="113.818"/>
    <line style="fill: none; fill-opacity:0; stroke-width: 0.2; stroke: #000000" x1="172.394" y1="79.2727" x2="231.606" y2="79.2727"/>
    <text font-size="12.7998" style="fill: #000000;text-anchor:middle;font-family:sans-serif;font-style:normal;font-weight:normal" x="202" y="104">
      <tspan x="202" y="104">connexion</tspan>
    </text>
  </g>
  <g>
    <polygon style="fill: #ffffff" points="322,80 342,100 322,120 302,100 "/>
    <polygon style="fill: none; fill-opacity:0; stroke-width: 2; stroke: #000000" points="322,80 342,100 322,120 302,100 "/>
    <polygon style="fill: none; fill-opacity:0; stroke-width: 0.2; stroke: #000000" points="322,80 342,100 322,120 302,100 "/>
  </g>
  <text font-size="12.7998" style="fill: #000000;text-anchor:start;font-family:sans-serif;font-style:normal;font-weight:normal" x="357" y="95">
    <tspan x="357" y="95">identifiants</tspan>
    <tspan x="357" y="111">corrects ?</tspan>
  </text>
  <g>
    <ellipse style="fill: #000000" cx="462" cy="-2.22045e-15" rx="20" ry="20"/>
    <ellipse style="fill: none; fill-opacity:0; stroke-width: 2; stroke: #000000" cx="462" cy="-2.22045e-15" rx="20" ry="20"/>
    <ellipse style="fill: none; fill-opacity:0; stroke-width: 0.2; stroke: #000000" cx="462" cy="-2.22045e-15" rx="20" ry="20"/>
    <ellipse style="fill: #ffffff" cx="462" cy="-2.22045e-15" rx="17.1429" ry="17.1429"/>
    <ellipse style="fill: none; fill-opacity:0; stroke-width: 2; stroke: #000000" cx="462" cy="-2.22045e-15" rx="17.1429" ry="17.1429"/>
    <ellipse style="fill: none; fill-opacity:0; stroke-width: 0.2; stroke: #000000" cx="462" cy="-2.22045e-15" rx="17.1429" ry="17.1429"/>
    <ellipse style="fill: #000000" cx="462" cy="-2.22045e-15" rx="11.4286" ry="11.4286"/>
    <ellipse style="fill: none; fill-opacity:0; stroke-width: 2; stroke: #000000" cx="462" cy="-2.22045e-15" rx="11.4286" ry="11.4286"/>
    <ellipse style="fill: none; fill-opacity:0; stroke-width: 0.2; stroke: #000000" cx="462" cy="-2.22045e-15" rx="11.4286" ry="11.4286"/>
  </g>
  <g>
    <path style="fill: none; fill-opacity:0; stroke-width: 2; stroke: #000000" d="M 322 80 C 322,0 320,0 432.264,-2.04325e-15"/>
    <polygon style="fill: #000000" points="439.764,-2.17975e-15 429.764,5 432.264,-2.04325e-15 429.764,-5 "/>
    <polygon style="fill: none; fill-opacity:0; stroke-width: 2; stroke: #000000" points="439.764,-2.17975e-15 429.764,5 432.264,-2.04325e-15 429.764,-5 "/>
  </g>
  <text font-size="12.7998" style="fill: #000000;text-anchor:start;font-family:sans-serif;font-style:normal;font-weight:normal" x="330" y="73">
    <tspan x="330" y="73">oui</tspan>
  </text>
  <g>
    <polygon style="fill: #ffffff" points="322,180 342,200 322,220 302,200 "/>
    <polygon style="fill: none; fill-opacity:0; stroke-width: 2; stroke: #000000" points="322,180 342,200 322,220 302,200 "/>
    <polygon style="fill: none; fill-opacity:0; stroke-width: 0.2; stroke: #000000" points="322,180 342,200 322,220 302,200 "/>
  </g>
  <g>
    <line style="fill: none; fill-opacity:0; stroke-width: 2; stroke: #000000" x1="322" y1="120" x2="322" y2="170.264"/>
    <polygon style="fill: #000000" points="322,177.764 317,167.764 322,170.264 327,167.764 "/>
    <polygon style="fill: none; fill-opacity:0; stroke-width: 2; stroke: #000000" points="322,177.764 317,167.764 322,170.264 327,167.764 "/>
  </g>
  <text font-size="12.7998" style="fill: #000000;text-anchor:start;font-family:sans-serif;font-style:normal;font-weight:normal" x="331" y="135">
    <tspan x="331" y="135">non</tspan>
  </text>
  <text font-size="12.7998" style="fill: #000000;text-anchor:start;font-family:sans-serif;font-style:normal;font-weight:normal" x="289" y="241">
    <tspan x="289" y="241">nombre de</tspan>
    <tspan x="289" y="257">tentatives</tspan>
    <tspan x="289" y="273">dépassé ?</tspan>
  </text>
  <g>
    <line style="fill: none; fill-opacity:0; stroke-width: 2; stroke: #000000" x1="342" y1="200" x2="430.264" y2="200"/>
    <polygon style="fill: #000000" points="437.764,200 427.764,205 430.264,200 427.764,195 "/>
    <polygon style="fill: none; fill-opacity:0; stroke-width: 2; stroke: #000000" points="437.764,200 427.764,205 430.264,200 427.764,195 "/>
  </g>
  <text font-size="12.7998" style="fill: #000000;text-anchor:start;font-family:sans-serif;font-style:normal;font-weight:normal" x="347" y="214">
    <tspan x="347" y="214">oui</tspan>
  </text>
  <text font-size="12.7998" style="fill: #000000;text-anchor:start;font-family:sans-serif;font-style:normal;font-weight:normal" x="494" y="-3">
    <tspan x="494" y="-3">connexion</tspan>
    <tspan x="494" y="13">réussie</tspan>
  </text>
  <text font-size="12.7998" style="fill: #000000;text-anchor:start;font-family:sans-serif;font-style:normal;font-weight:normal" x="494" y="196">
    <tspan x="494" y="196">blocage de</tspan>
    <tspan x="494" y="212">la connexion</tspan>
  </text>
  <g>
    <path style="fill: none; fill-opacity:0; stroke-width: 2; stroke: #000000" d="M 302 200 C 202,200 202,200 202,130.463"/>
    <polygon style="fill: #000000" points="202,122.963 207,132.963 202,130.463 197,132.963 "/>
    <polygon style="fill: none; fill-opacity:0; stroke-width: 2; stroke: #000000" points="202,122.963 207,132.963 202,130.463 197,132.963 "/>
  </g>
  <text font-size="12.7998" style="fill: #000000;text-anchor:start;font-family:sans-serif;font-style:normal;font-weight:normal" x="274" y="216">
    <tspan x="274" y="216">non</tspan>
  </text>
  <g>
    <line style="fill: none; fill-opacity:0; stroke-width: 2; stroke: #000000" x1="240.065" y1="100" x2="292.264" y2="100"/>
    <polygon style="fill: #000000" points="299.764,100 289.764,105 292.264,100 289.764,95 "/>
    <polygon style="fill: none; fill-opacity:0; stroke-width: 2; stroke: #000000" points="299.764,100 289.764,105 292.264,100 289.764,95 "/>
  </g>
  <g>
    <line style="fill: none; fill-opacity:0; stroke-width: 2; stroke: #000000" x1="102" y1="100" x2="154.199" y2="100"/>
    <polygon style="fill: #000000" points="161.699,100 151.699,105 154.199,100 151.699,95 "/>
    <polygon style="fill: none; fill-opacity:0; stroke-width: 2; stroke: #000000" points="161.699,100 151.699,105 154.199,100 151.699,95 "/>
  </g>
  <text font-size="12.7998" style="fill: #000000;text-anchor:start;font-family:sans-serif;font-style:normal;font-weight:normal" x="7" y="103">
    <tspan x="7" y="103">visiteur</tspan>
  </text>
  <g>
    <ellipse style="fill: #ffffff" cx="79.4147" cy="-99.2727" rx="20" ry="20"/>
    <ellipse style="fill: none; fill-opacity:0; stroke-width: 2; stroke: #000000" cx="79.4147" cy="-99.2727" rx="20" ry="20"/>
    <ellipse style="fill: none; fill-opacity:0; stroke-width: 0.2; stroke: #000000" cx="79.4147" cy="-99.2727" rx="20" ry="20"/>
    <ellipse style="fill: #ffffff" cx="79.4147" cy="-99.2727" rx="17.1429" ry="17.1429"/>
    <ellipse style="fill: none; fill-opacity:0; stroke-width: 2; stroke: #000000" cx="79.4147" cy="-99.2727" rx="17.1429" ry="17.1429"/>
    <ellipse style="fill: none; fill-opacity:0; stroke-width: 0.2; stroke: #000000" cx="79.4147" cy="-99.2727" rx="17.1429" ry="17.1429"/>
    <polygon style="fill: #000000" points="67.9861,-107.844 76.5576,-99.2727 67.9861,-90.7013 70.8433,-87.8442 79.4147,-96.4156 87.9861,-87.8442 90.8433,-90.7013 82.2718,-99.2727 90.8433,-107.844 87.9861,-110.701 79.4147,-102.13 70.8433,-110.701 "/>
    <polygon style="fill: none; fill-opacity:0; stroke-width: 2; stroke: #000000" points="67.9861,-107.844 76.5576,-99.2727 67.9861,-90.7013 70.8433,-87.8442 79.4147,-96.4156 87.9861,-87.8442 90.8433,-90.7013 82.2718,-99.2727 90.8433,-107.844 87.9861,-110.701 79.4147,-102.13 70.8433,-110.701 "/>
    <polygon style="fill: none; fill-opacity:0; stroke-width: 0.2; stroke: #000000" points="67.9861,-107.844 76.5576,-99.2727 67.9861,-90.7013 70.8433,-87.8442 79.4147,-96.4156 87.9861,-87.8442 90.8433,-90.7013 82.2718,-99.2727 90.8433,-107.844 87.9861,-110.701 79.4147,-102.13 70.8433,-110.701 "/>
  </g>
  <text font-size="12.7998" style="fill: #000000;text-anchor:start;font-family:sans-serif;font-style:normal;font-weight:normal" x="-13.5853" y="-111.273">
    <tspan x="-13.5853" y="-111.273">sortie de la</tspan>
    <tspan x="-13.5853" y="-95.2727">page de</tspan>
    <tspan x="-13.5853" y="-79.2727">connexion</tspan>
  </text>
  <text font-size="12.7998" style="fill: #000000;text-anchor:start;font-family:sans-serif;font-style:normal;font-weight:normal" x="208" y="46">
    <tspan x="208" y="46">annulation</tspan>
  </text>
  <g>
    <polygon style="fill: #ffffff" points="201.415,-119.273 221.415,-99.2727 201.415,-79.2727 181.415,-99.2727 "/>
    <polygon style="fill: none; fill-opacity:0; stroke-width: 2; stroke: #000000" points="201.415,-119.273 221.415,-99.2727 201.415,-79.2727 181.415,-99.2727 "/>
    <polygon style="fill: none; fill-opacity:0; stroke-width: 0.2; stroke: #000000" points="201.415,-119.273 221.415,-99.2727 201.415,-79.2727 181.415,-99.2727 "/>
  </g>
  <text font-size="12.7998" style="fill: #000000;text-anchor:start;font-family:sans-serif;font-style:normal;font-weight:normal" x="179.415" y="-178.273">
    <tspan x="179.415" y="-178.273">demande</tspan>
    <tspan x="179.415" y="-162.273">de rappel</tspan>
    <tspan x="179.415" y="-146.273">du mot de</tspan>
    <tspan x="179.415" y="-130.273">passe ?</tspan>
  </text>
  <g>
    <rect style="fill: none; fill-opacity:0; stroke-width: 2; stroke: #000000" x="445.714" y="185.714" width="28.5714" height="28.5714"/>
    <ellipse style="fill: #000000" cx="460" cy="200" rx="20" ry="20"/>
    <ellipse style="fill: none; fill-opacity:0; stroke-width: 2; stroke: #000000" cx="460" cy="200" rx="20" ry="20"/>
    <ellipse style="fill: none; fill-opacity:0; stroke-width: 0.2; stroke: #000000" cx="460" cy="200" rx="20" ry="20"/>
    <ellipse style="fill: #ffffff" cx="460" cy="200" rx="17.1429" ry="17.1429"/>
    <ellipse style="fill: none; fill-opacity:0; stroke-width: 2; stroke: #000000" cx="460" cy="200" rx="17.1429" ry="17.1429"/>
    <ellipse style="fill: none; fill-opacity:0; stroke-width: 0.2; stroke: #000000" cx="460" cy="200" rx="17.1429" ry="17.1429"/>
    <polygon style="fill: #000000" points="448.571,211.429 454.286,197.143 468.571,208.571 471.429,188.571 465.714,202.857 451.429,191.429 "/>
    <polygon style="fill: none; fill-opacity:0; stroke-width: 2; stroke: #000000" points="448.571,211.429 454.286,197.143 468.571,208.571 471.429,188.571 465.714,202.857 451.429,191.429 "/>
    <polygon style="fill: none; fill-opacity:0; stroke-width: 0.2; stroke: #000000" points="448.571,211.429 454.286,197.143 468.571,208.571 471.429,188.571 465.714,202.857 451.429,191.429 "/>
  </g>
  <g>
    <line style="fill: none; fill-opacity:0; stroke-width: 2; stroke: #000000" x1="202" y1="79.2727" x2="201.451" y2="-69.5367"/>
    <polygon style="fill: #000000" points="201.423,-77.0367 206.46,-67.0552 201.451,-69.5367 196.46,-67.0183 "/>
    <polygon style="fill: none; fill-opacity:0; stroke-width: 2; stroke: #000000" points="201.423,-77.0367 206.46,-67.0552 201.451,-69.5367 196.46,-67.0183 "/>
  </g>
  <g>
    <line style="fill: none; fill-opacity:0; stroke-width: 2; stroke: #000000" x1="181.415" y1="-99.2727" x2="109.151" y2="-99.2727"/>
    <polygon style="fill: #000000" points="101.651,-99.2727 111.651,-104.273 109.151,-99.2727 111.651,-94.2727 "/>
    <polygon style="fill: none; fill-opacity:0; stroke-width: 2; stroke: #000000" points="101.651,-99.2727 111.651,-104.273 109.151,-99.2727 111.651,-94.2727 "/>
  </g>
  <text font-size="12.7998" style="fill: #000000;text-anchor:start;font-family:sans-serif;font-style:normal;font-weight:normal" x="229.415" y="-107.273">
    <tspan x="229.415" y="-107.273">oui</tspan>
  </text>
  <text font-size="12.7998" style="fill: #000000;text-anchor:start;font-family:sans-serif;font-style:normal;font-weight:normal" x="149.415" y="-108.273">
    <tspan x="149.415" y="-108.273">non</tspan>
  </text>
  <g>
    <path style="fill: #ffffff" d="M 288.759 -120 C 297.518,-120 341.312,-120 350.071,-120 C 358.829,-120 358.829,-120 358.829,-113.091 C 358.829,-106.182 358.829,-92.3636 358.829,-85.4545 C 358.829,-78.5455 358.829,-78.5455 350.071,-78.5455 C 341.312,-78.5455 297.518,-78.5455 288.759,-78.5455 C 280,-78.5455 280,-78.5455 280,-85.4545 C 280,-92.3636 280,-106.182 280,-113.091 C 280,-120 280,-120 288.759,-120z"/>
    <path style="fill: none; fill-opacity:0; stroke-width: 2; stroke: #000000" d="M 288.759 -120 C 297.518,-120 341.312,-120 350.071,-120 C 358.829,-120 358.829,-120 358.829,-113.091 C 358.829,-106.182 358.829,-92.3636 358.829,-85.4545 C 358.829,-78.5455 358.829,-78.5455 350.071,-78.5455 C 341.312,-78.5455 297.518,-78.5455 288.759,-78.5455 C 280,-78.5455 280,-78.5455 280,-85.4545 C 280,-92.3636 280,-106.182 280,-113.091 C 280,-120 280,-120 288.759,-120"/>
    <path style="fill: none; fill-opacity:0; stroke-width: 0.2; stroke: #000000" d="M 288.759 -120 C 297.518,-120 341.312,-120 350.071,-120 C 358.829,-120 358.829,-120 358.829,-113.091 C 358.829,-106.182 358.829,-92.3636 358.829,-85.4545 C 358.829,-78.5455 358.829,-78.5455 350.071,-78.5455 C 341.312,-78.5455 297.518,-78.5455 288.759,-78.5455 C 280,-78.5455 280,-78.5455 280,-85.4545 C 280,-92.3636 280,-106.182 280,-113.091 C 280,-120 280,-120 288.759,-120"/>
    <line style="fill: none; fill-opacity:0; stroke-width: 0.2; stroke: #000000" x1="288.759" y1="-78.5455" x2="350.071" y2="-78.5455"/>
    <line style="fill: none; fill-opacity:0; stroke-width: 0.2; stroke: #000000" x1="358.829" y1="-113.091" x2="358.829" y2="-85.4545"/>
    <line style="fill: none; fill-opacity:0; stroke-width: 0.2; stroke: #000000" x1="280" y1="-113.091" x2="280" y2="-85.4545"/>
    <line style="fill: none; fill-opacity:0; stroke-width: 0.2; stroke: #000000" x1="288.759" y1="-120" x2="350.071" y2="-120"/>
    <text font-size="12.7998" style="fill: #000000;text-anchor:middle;font-family:sans-serif;font-style:normal;font-weight:normal" x="319.415" y="-103.273">
      <tspan x="319.415" y="-103.273">e-mail à</tspan>
      <tspan x="319.415" y="-87.2727">renseigner</tspan>
    </text>
  </g>
  <g>
    <polygon style="fill: #ffffff" points="460,-120 480,-100 460,-80 440,-100 "/>
    <polygon style="fill: none; fill-opacity:0; stroke-width: 2; stroke: #000000" points="460,-120 480,-100 460,-80 440,-100 "/>
    <polygon style="fill: none; fill-opacity:0; stroke-width: 0.2; stroke: #000000" points="460,-120 480,-100 460,-80 440,-100 "/>
  </g>
  <g>
    <ellipse style="fill: #000000" cx="460" cy="-200" rx="20" ry="20"/>
    <ellipse style="fill: none; fill-opacity:0; stroke-width: 2; stroke: #000000" cx="460" cy="-200" rx="20" ry="20"/>
    <ellipse style="fill: none; fill-opacity:0; stroke-width: 0.2; stroke: #000000" cx="460" cy="-200" rx="20" ry="20"/>
    <ellipse style="fill: #ffffff" cx="460" cy="-200" rx="17.1429" ry="17.1429"/>
    <ellipse style="fill: none; fill-opacity:0; stroke-width: 2; stroke: #000000" cx="460" cy="-200" rx="17.1429" ry="17.1429"/>
    <ellipse style="fill: none; fill-opacity:0; stroke-width: 0.2; stroke: #000000" cx="460" cy="-200" rx="17.1429" ry="17.1429"/>
    <ellipse style="fill: #000000" cx="460" cy="-200" rx="11.4286" ry="11.4286"/>
    <ellipse style="fill: none; fill-opacity:0; stroke-width: 2; stroke: #000000" cx="460" cy="-200" rx="11.4286" ry="11.4286"/>
    <ellipse style="fill: none; fill-opacity:0; stroke-width: 0.2; stroke: #000000" cx="460" cy="-200" rx="11.4286" ry="11.4286"/>
  </g>
  <text font-size="12.7998" style="fill: #000000;text-anchor:start;font-family:sans-serif;font-style:normal;font-weight:normal" x="500" y="-123">
    <tspan x="500" y="-123">e-mail</tspan>
    <tspan x="500" y="-107">existant</tspan>
    <tspan x="500" y="-91">dans la</tspan>
    <tspan x="500" y="-75">base ?</tspan>
  </text>
  <g>
    <line style="fill: none; fill-opacity:0; stroke-width: 2; stroke: #000000" x1="221.415" y1="-99.2727" x2="270.264" y2="-99.2727"/>
    <polygon style="fill: #000000" points="277.764,-99.2727 267.764,-94.2727 270.264,-99.2727 267.764,-104.273 "/>
    <polygon style="fill: none; fill-opacity:0; stroke-width: 2; stroke: #000000" points="277.764,-99.2727 267.764,-94.2727 270.264,-99.2727 267.764,-104.273 "/>
  </g>
  <g>
    <line style="fill: none; fill-opacity:0; stroke-width: 2; stroke: #000000" x1="358.829" y1="-99.2727" x2="430.264" y2="-99.9128"/>
    <polygon style="fill: #000000" points="437.764,-99.98 427.809,-94.8906 430.264,-99.9128 427.72,-104.89 "/>
    <polygon style="fill: none; fill-opacity:0; stroke-width: 2; stroke: #000000" points="437.764,-99.98 427.809,-94.8906 430.264,-99.9128 427.72,-104.89 "/>
  </g>
  <g>
    <line style="fill: none; fill-opacity:0; stroke-width: 2; stroke: #000000" x1="460" y1="-120" x2="460" y2="-170.264"/>
    <polygon style="fill: #000000" points="460,-177.764 465,-167.764 460,-170.264 455,-167.764 "/>
    <polygon style="fill: none; fill-opacity:0; stroke-width: 2; stroke: #000000" points="460,-177.764 465,-167.764 460,-170.264 455,-167.764 "/>
  </g>
  <text font-size="12.7998" style="fill: #000000;text-anchor:start;font-family:sans-serif;font-style:normal;font-weight:normal" x="464" y="-127">
    <tspan x="464" y="-127">oui</tspan>
  </text>
  <text font-size="12.7998" style="fill: #000000;text-anchor:start;font-family:sans-serif;font-style:normal;font-weight:normal" x="494" y="-213">
    <tspan x="494" y="-213">envoi d’un e-mail</tspan>
    <tspan x="494" y="-197">rappelant le pseudo</tspan>
    <tspan x="494" y="-181">et/ou le mot de passe</tspan>
  </text>
  <g>
    <path style="fill: none; fill-opacity:0; stroke-width: 2; stroke: #000000" d="M 460 -80 C 459.725,-50.3409 458.725,-50.3409 388.725,-49.3409 C 318.725,-48.3409 318.725,-48.3409 319.192,-68.8119"/>
    <polygon style="fill: #000000" points="319.364,-76.31 324.134,-66.1984 319.192,-68.8119 314.136,-66.4268 "/>
    <polygon style="fill: none; fill-opacity:0; stroke-width: 2; stroke: #000000" points="319.364,-76.31 324.134,-66.1984 319.192,-68.8119 314.136,-66.4268 "/>
  </g>
  <text font-size="12.7998" style="fill: #000000;text-anchor:start;font-family:sans-serif;font-style:normal;font-weight:normal" x="463.725" y="-72.3409">
    <tspan x="463.725" y="-72.3409">non</tspan>
  </text>
  <g>
    <path style="fill: none; fill-opacity:0; stroke-width: 2; stroke: #000000" d="M 319.415 -120 C 320.725,-218.341 319.725,-218.341 200.725,-218.341 C 81.7245,-218.341 79.7245,-217.341 79.4455,-129.009"/>
    <polygon style="fill: #000000" points="79.4218,-121.509 74.4534,-131.525 79.4455,-129.009 84.4533,-131.493 "/>
    <polygon style="fill: none; fill-opacity:0; stroke-width: 2; stroke: #000000" points="79.4218,-121.509 74.4534,-131.525 79.4455,-129.009 84.4533,-131.493 "/>
  </g>
  <text font-size="12.7998" style="fill: #000000;text-anchor:start;font-family:sans-serif;font-style:normal;font-weight:normal" x="326.724" y="-147.341">
    <tspan x="326.724" y="-147.341">annulation</tspan>
  </text>
</svg>
